<svg xmlns="http://www.w3.org/2000/svg" viewBox="0 0 180 230" role="img" aria-label="Winking mango logo">
  <defs>
    <linearGradient id="mangoBody" x1="30" y1="58" x2="148" y2="207">
      <stop offset="0" stop-color="#ffdf38" />
      <stop offset="0.5" stop-color="#ffc21e" />
      <stop offset="1" stop-color="#ff8518" />
    </linearGradient>
    <linearGradient id="mangoLeaf" x1="58" y1="14" x2="166" y2="59">
      <stop offset="0" stop-color="#71e9a4" />
      <stop offset="0.58" stop-color="#36ce76" />
      <stop offset="1" stop-color="#20a951" />
    </linearGradient>
    <radialGradient id="leafShine" cx="33%" cy="24%" r="60%">
      <stop offset="0" stop-color="#a7f3c4" stop-opacity="0.78" />
      <stop offset="0.42" stop-color="#a7f3c4" stop-opacity="0" />
    </radialGradient>
    <radialGradient id="bodyGlow" cx="24%" cy="29%" r="72%">
      <stop offset="0" stop-color="#fff085" stop-opacity="0.68" />
      <stop offset="0.54" stop-color="#fff085" stop-opacity="0.16" />
      <stop offset="1" stop-color="#fff085" stop-opacity="0" />
    </radialGradient>
    <linearGradient id="bodyShade" x1="81" y1="57" x2="145" y2="197">
      <stop offset="0" stop-color="#f59e0b" stop-opacity="0" />
      <stop offset="1" stop-color="#ef6c00" stop-opacity="0.22" />
    </linearGradient>
  </defs>

  <path
    fill="none"
    stroke="#6f43d6"
    stroke-linecap="round"
    stroke-linejoin="round"
    stroke-width="16"
    d="M88 50C44 54 16 99 14 142c-2 56 34 89 82 91 49 2 79-34 77-88-2-55-34-99-85-95Z"
  />
  <path
    fill="url(#mangoBody)"
    d="M88 50C44 54 16 99 14 142c-2 56 34 89 82 91 49 2 79-34 77-88-2-55-34-99-85-95Z"
  />
  <path
    fill="url(#bodyGlow)"
    d="M88 50C44 54 16 99 14 142c-2 56 34 89 82 91 49 2 79-34 77-88-2-55-34-99-85-95Z"
  />
  <path
    fill="url(#bodyShade)"
    d="M99 55c30 30 43 74 35 113-8 38-36 58-76 57 12 6 25 8 38 8 49 2 79-34 77-88-2-48-26-88-74-90Z"
  />
  <path
    fill="none"
    stroke="#fff7cc"
    stroke-opacity="0.92"
    stroke-linecap="round"
    stroke-width="7"
    d="M78 58C48 66 25 101 25 142c0 44 25 72 61 80"
  />
  <path
    fill="none"
    stroke="#6f43d6"
    stroke-linecap="round"
    stroke-linejoin="round"
    stroke-width="14"
    d="M74 18c25 2 66 10 85 18 22 9 29 31 17 47-10 14-31 13-52 8L53 75c5-29 8-58 21-57Z"
  />
  <path
    fill="url(#mangoLeaf)"
    d="M74 18c25 2 66 10 85 18 22 9 29 31 17 47-10 14-31 13-52 8L53 75c5-29 8-58 21-57Z"
  />
  <path
    fill="url(#leafShine)"
    d="M74 18c25 2 66 10 85 18 22 9 29 31 17 47-10 14-31 13-52 8L53 75c5-29 8-58 21-57Z"
  />
  <path
    fill="none"
    stroke="#581c87"
    stroke-linecap="round"
    stroke-width="8"
    d="M47 132c8-16 30-16 39 0"
  />
  <circle cx="112" cy="125" r="15" fill="#581c87" />
  <path
    fill="none"
    stroke="#581c87"
    stroke-linecap="round"
    stroke-width="8"
    d="M66 160c10 28 48 28 58 0"
  />
  <ellipse
    cx="128"
    cy="151"
    rx="18"
    ry="13"
    fill="#fb7185"
    fill-opacity="0.76"
    transform="rotate(-12 128 151)"
  />
</svg>
