<svg xmlns="http://www.w3.org/2000/svg" viewBox="0 0 240 260" role="img" aria-label="Winking mango logo">
  <defs>
    <linearGradient id="bodyFill" x1="58" y1="70" x2="178" y2="226">
      <stop offset="0" stop-color="#fff454" />
      <stop offset="0.58" stop-color="#ffdf2d" />
      <stop offset="1" stop-color="#ffc229" />
    </linearGradient>
    <linearGradient id="leafFill" x1="81" y1="26" x2="205" y2="77">
      <stop offset="0" stop-color="#7ceca5" />
      <stop offset="0.55" stop-color="#5fe292" />
      <stop offset="1" stop-color="#41d47c" />
    </linearGradient>
    <radialGradient id="leafGlow" cx="28%" cy="20%" r="65%">
      <stop offset="0" stop-color="#a8f6bf" stop-opacity="0.72" />
      <stop offset="0.38" stop-color="#a8f6bf" stop-opacity="0" />
    </radialGradient>
    <radialGradient id="bodyGlow" cx="25%" cy="25%" r="80%">
      <stop offset="0" stop-color="#fffaa1" stop-opacity="0.82" />
      <stop offset="0.55" stop-color="#fffaa1" stop-opacity="0.16" />
      <stop offset="1" stop-color="#fffaa1" stop-opacity="0" />
    </radialGradient>
    <filter id="softShadow" x="-20%" y="-20%" width="140%" height="150%">
      <feDropShadow dx="0" dy="10" stdDeviation="8" flood-color="#6f43d6" flood-opacity="0.22" />
    </filter>
  </defs>

  <g filter="url(#softShadow)">
    <path
      fill="url(#bodyFill)"
      stroke="#6f43d6"
      stroke-linecap="round"
      stroke-linejoin="round"
      stroke-width="12"
      d="M121 71C76 71 42 113 40 163c-2 55 29 88 79 90 55 2 90-34 89-91-1-55-34-91-87-91Z"
    />
    <path
      fill="url(#bodyGlow)"
      d="M121 71C76 71 42 113 40 163c-2 55 29 88 79 90 55 2 90-34 89-91-1-55-34-91-87-91Z"
    />
    <path
      fill="none"
      stroke="#fff7b8"
      stroke-linecap="round"
      stroke-width="7"
      d="M83 86C60 104 52 133 52 164c0 40 18 66 52 78"
    />
    <path
      fill="url(#leafFill)"
      stroke="#6f43d6"
      stroke-linecap="round"
      stroke-linejoin="round"
      stroke-width="12"
      d="M84 24c40 3 91 14 115 30 17 12 21 36 7 52-14 17-37 18-65 12L72 102 84 24Z"
    />
    <path
      fill="url(#leafGlow)"
      d="M84 24c40 3 91 14 115 30 17 12 21 36 7 52-14 17-37 18-65 12L72 102 84 24Z"
    />
    <path
      fill="none"
      stroke="#581c87"
      stroke-linecap="round"
      stroke-width="9"
      d="M76 157c11-19 34-19 45 0"
    />
    <circle cx="144" cy="150" r="17" fill="#581c87" />
    <path
      fill="none"
      stroke="#581c87"
      stroke-linecap="round"
      stroke-width="9"
      d="M98 186c14 31 57 31 70 0"
    />
    <ellipse
      cx="169"
      cy="176"
      rx="22"
      ry="15"
      fill="#fb7185"
      fill-opacity="0.72"
      transform="rotate(-8 169 176)"
    />
  </g>
</svg>
