<svg xmlns="http://www.w3.org/2000/svg" viewBox="-16 -10 212 258" role="img" aria-label="Winking mango logo">
  <defs>
    <linearGradient id="mangoBody" x1="30" y1="58" x2="148" y2="207">
      <stop offset="0" stop-color="#ffdf38" />
      <stop offset="0.5" stop-color="#ffc21e" />
      <stop offset="1" stop-color="#ff8518" />
    </linearGradient>
    <linearGradient id="mangoLeaf" x1="58" y1="14" x2="166" y2="59">
      <stop offset="0" stop-color="#71e9a4" />
      <stop offset="0.58" stop-color="#36ce76" />
      <stop offset="1" stop-color="#20a951" />
    </linearGradient>
    <radialGradient id="leafShine" cx="33%" cy="24%" r="60%">
      <stop offset="0" stop-color="#a7f3c4" stop-opacity="0.78" />
      <stop offset="0.42" stop-color="#a7f3c4" stop-opacity="0" />
    </radialGradient>
    <radialGradient id="bodyGlow" cx="24%" cy="29%" r="72%">
      <stop offset="0" stop-color="#fff085" stop-opacity="0.68" />
      <stop offset="0.54" stop-color="#fff085" stop-opacity="0.16" />
      <stop offset="1" stop-color="#fff085" stop-opacity="0" />
    </radialGradient>
    <linearGradient id="bodyShade" x1="81" y1="57" x2="145" y2="197">
      <stop offset="0" stop-color="#f59e0b" stop-opacity="0" />
      <stop offset="1" stop-color="#ef6c00" stop-opacity="0.22" />
    </linearGradient>
  </defs>

  <path
    fill="none"
    stroke="#6f43d6"
    stroke-linecap="round"
    stroke-linejoin="round"
    stroke-width="16"
    d="M91 50C45 51 12 101 12 149c0 58 35 91 84 93 52 2 85-35 84-91-2-58-36-103-89-101Z"
  />
  <path
    fill="url(#mangoBody)"
    d="M91 50C45 51 12 101 12 149c0 58 35 91 84 93 52 2 85-35 84-91-2-58-36-103-89-101Z"
  />
  <path
    fill="url(#bodyGlow)"
    d="M91 50C45 51 12 101 12 149c0 58 35 91 84 93 52 2 85-35 84-91-2-58-36-103-89-101Z"
  />
  <path
    fill="url(#bodyShade)"
    d="M102 56c33 30 49 78 40 120-8 39-38 60-81 58 12 6 24 8 36 8 52 2 85-35 83-91-1-50-28-92-78-95Z"
  />
  <path
    fill="none"
    stroke="#fff7cc"
    stroke-opacity="0.92"
    stroke-linecap="round"
    stroke-width="7"
    d="M81 58C49 66 24 103 24 149c0 46 27 74 65 82"
  />
  <path
    fill="none"
    stroke="#6f43d6"
    stroke-linecap="round"
    stroke-linejoin="round"
    stroke-width="14"
    d="M78 9c26 3 70 11 91 21 22 10 30 33 17 50-11 15-33 15-55 9L54 72c5-33 10-65 24-63Z"
  />
  <path
    fill="url(#mangoLeaf)"
    d="M78 9c26 3 70 11 91 21 22 10 30 33 17 50-11 15-33 15-55 9L54 72c5-33 10-65 24-63Z"
  />
  <path
    fill="url(#leafShine)"
    d="M78 9c26 3 70 11 91 21 22 10 30 33 17 50-11 15-33 15-55 9L54 72c5-33 10-65 24-63Z"
  />
  <path
    fill="none"
    stroke="#581c87"
    stroke-linecap="round"
    stroke-width="8"
    d="M47 132c8-16 30-16 39 0"
  />
  <circle cx="112" cy="125" r="15" fill="#581c87" />
  <path
    fill="none"
    stroke="#581c87"
    stroke-linecap="round"
    stroke-width="8"
    d="M66 160c10 28 48 28 58 0"
  />
  <ellipse
    cx="128"
    cy="151"
    rx="18"
    ry="13"
    fill="#fb7185"
    fill-opacity="0.76"
    transform="rotate(-12 128 151)"
  />
</svg>
